<svg width="24" height="23" viewBox="0 0 24 23" fill="none" xmlns="http://www.w3.org/2000/svg">
<path d="M1.04169 3.16667V9.41667M1.04169 9.41667H7.29169M1.04169 9.41667L5.87502 4.875C7.31347 3.43898 9.17966 2.50935 11.1924 2.22617C13.2051 1.94298 15.2554 2.3216 17.0342 3.30497C18.8131 4.28833 20.2241 5.82317 21.0548 7.67823C21.8855 9.53329 22.0908 11.6081 21.6398 13.59C21.1888 15.5719 20.1059 17.3535 18.5543 18.6664C17.0027 19.9793 15.0664 20.7525 13.0372 20.8692C11.008 20.986 8.99583 20.4402 7.30383 19.3139C5.61183 18.1877 4.33168 16.5421 3.65627 14.625" stroke="#1E1E1E" stroke-width="4" stroke-linecap="round" stroke-linejoin="round"/>
</svg>
